<?xml version="1.0" encoding="utf-8"?>
<!-- Generator: Adobe Illustrator 25.4.1, SVG Export Plug-In . SVG Version: 6.00 Build 0)  -->
<svg version="1.1" id="Layer_1" xmlns="http://www.w3.org/2000/svg" xmlns:xlink="http://www.w3.org/1999/xlink" x="0px" y="0px"
	 viewBox="0 0 557.3 186.8" style="enable-background:new 0 0 557.3 186.8;" xml:space="preserve">
<style type="text/css">
	.st0{fill:#5851DE;}
	.st1{fill:#191919;}
	.st2{fill:#FFFFFF;}
</style>
<g>
	<path class="st2" d="M175.7,0c-4.1,7-9.9,12.9-17,17c7,4.1,12.9,9.9,17,17h0c4.1-7,9.9-12.9,17-17C185.7,12.9,179.8,7,175.7,0z"/>
	<path class="st2" d="M462.5,38.7c-13.1,0-20.7,5.6-25.3,11.7c-6.5-3.5-15-5.5-25.5-5.5c-27.2,0-42.2,15.1-42.2,33.8
		c0,18.7,14.9,33.8,42.2,33.8c10.8,0,19.6-2.4,26.3-6.3l-0.2,0.1c3.2,2.2,4.2,6.6,2.1,9.9c-0.8,1.2-1.7,2.3-2.9,2.7
		c-3.9,1.6-8,1.6-12.2,1.4c-9.3-0.5-18.5-1.8-27.9-1.2c-13.3,0.8-23.9,5.9-29,19c-4.9,12.7-3.2,26.3,5.7,35.2
		c21,21,56.8,11.7,56.8,11.7s30.2-6.7,30.2-34.2c0-3.2-0.9-4.6-4.4-4.4l-15.6,0.1c-1.3,0-2,1.5-1.2,2.5c2.6,3.4,4.7,6.4,5.1,10.3
		c1,8.5-0.7,14-7.5,18.7c-4.3,2.9-9.5,4.5-14.7,4.7c-8.4,0.3-16.3-2.5-23.3-8.9c-7.8-7.1-9.2-16.5-4.1-25.8
		c4.9-8.9,13-13.5,22.6-15.9c7.1-1.8,14.5-2.8,21.1-6.1c8.8-4.4,10.5-14,2.6-21.9L441,104c8.4-6.2,12.8-15.3,12.8-25.4
		c0-8.9-3.1-17-9.5-23.1c2.8-0.9,6-1.2,9.6-0.8c3.9,0.5,7,2.5,10.3,5.1c1,0.8,2.5,0.1,2.5-1.2l0.1-15.6
		C467,39.6,465.7,38.7,462.5,38.7z M412,108.6c-13.7,0-18-13.3-18-29.8S398.4,49,412,49s18,13.3,18,29.8S425.6,108.6,412,108.6z"/>
	<path class="st2" d="M267.2,66c1,0.8,2.5,0.1,2.5-1.2l0.1-15.6c0.2-3.5-1.2-4.4-4.4-4.4c-22.9,0-29,17.2-32,23.9v-0.4
		c0-13-10.5-23.5-23.5-23.5h-1.5c-1.1,0-2,0.9-2,2v97c0,1.2,1,2.2,2.2,2.2h22.8c1.1,0,1.9-0.9,1.9-1.9V78.8c0-0.7,0-1.4,0-2.1
		c5.5-12.4,12.6-17.1,23.4-15.8C260.8,61.4,263.9,63.4,267.2,66z"/>
	<path class="st2" d="M165.7,44.8h-1.5c-1.1,0-2,0.9-2,2v97c0,1.2,1,2.2,2.2,2.2h22.8c1.1,0,1.9-0.9,1.9-1.9V68.3
		C189.2,55.3,178.7,44.8,165.7,44.8z"/>
	<path class="st2" d="M121.4,44.8l-3.6,0c-22.9,0-29,17.2-32,23.9v-0.4c0-13-10.5-23.5-23.5-23.5l-3.6,0c-22.9,0-29,17.2-32,23.9
		v-0.4c0-13-10.5-23.5-23.5-23.5H2c-1.1,0-2,0.9-2,2v97c0,1.2,1,2.2,2.2,2.2H25c1.1,0,1.9-0.9,1.9-1.9l0-60.7c0-6,2.1-12,6.1-16.4
		c4.5-5,10.1-6.8,17.3-5.9h0c5,0.6,8.7,4.8,8.7,9.8v73c0,1.2,1,2.2,2.2,2.2H84c1.1,0,1.9-0.9,1.9-1.9l0-60.7c0-6,2.1-12,6.1-16.4
		c4.5-5,10.1-6.8,17.3-5.9c5,0.6,8.7,4.8,8.7,9.8v73c0,1.2,1,2.2,2.2,2.2H143c1.1,0,1.9-0.9,1.9-1.9V68.3
		C144.9,55.3,134.4,44.8,121.4,44.8z"/>
	<path class="st2" d="M311.8,45c-7.1-0.7-14.3,0.4-20.9,3.6c-3.3,1.6-6.2,3.9-8.4,6.7c-0.5,1-0.3,2.1,0.4,2.8c0.5,0.5,1.3,0.6,2,0.4
		c2.1-0.8,8.4-2.9,14.2-0.9c6.6,2.2,9.3,6.6,4.9,12.1c-3,3.8-7.2,6.1-11.3,8.5c-8.3,4.7-16.7,9-24,15.1
		c-8.9,7.5-13.5,16.7-11.3,28.4c2.3,12.1,10.4,19,21.7,22.3c23.8,7.6,44.6-6.2,47.9-11.4c0.1-0.2,0.4-0.2,0.5,0
		c3.8,7.9,11.8,13.3,21.1,13.3h1.2c1.2,0,2.2-1,2.2-2.2V87.8C352,58,325.8,46.4,311.8,45z M325.1,118.6c0,0.1,0,0.3,0,0.4
		c-0.1,10.1-8.8,18.2-18.9,17.3c-6.3-0.6-11.8-3.2-15.6-7.6c-6.4-7.4-6.9-18.6-1.4-29.1c2-3.8,4.7-7.2,7.6-10.3
		c3.7-3.9,7.4-7.8,10.7-12.1c7.3-9.8,6-16.5-4.5-21.7c-1.3-0.6-1.2-2.5,0.1-3.1l0,0c9.1-3.6,19.3,2.5,20.7,12.2
		c1.1,7.6,1.2,17.1,1.3,23.2V118.6z"/>
	<path class="st2" d="M548.6,122.2c-0.1,0.1-0.1,0.1-0.2,0.2c-4.8,5.7-10.6,10.1-17.9,12.2c-14.6,4.2-29-4.4-32.2-19.1
		c-1.6-7.4,1.2-11.7,8.7-13c2.6-0.4,5.2-0.5,7.8-0.6c8.3-0.3,16.7-0.1,24.9-2.6c16.3-4.8,22.9-23.8,12.8-37.4
		c-8.8-11.9-21.1-17.1-38.2-17.1c-17.4,0.4-32.6,8.8-41.4,26.8c-7.1,14.5-7.3,29.8-2.3,45c3,9.2,8.6,16.8,16.9,22.2
		c21.1,13.8,49.8,6.7,63-15.2C551.1,122.5,549.3,121.2,548.6,122.2z M495.6,106.8c-0.4-3-0.9-5.7-1.1-8.4
		c-0.8-11.1-0.4-22.1,3.1-32.8c1.6-5,3.9-9.7,7.8-13.3c5.5-5.2,12-6.5,19.1-3.9c6.8,2.5,10.3,7.7,11.1,14.7
		c1.4,12.1-4,21.7-15.2,27.1c-3.5,1.7-7.2,3.1-10.8,4.3c-6,2-11,5-12.9,11.5C496.6,106.2,496.3,106.4,495.6,106.8z"/>
</g>
</svg>
